<svg xmlns="http://www.w3.org/2000/svg" viewBox="0 0 1000 1000" width="1000" height="1000" style="width: 100%; height: 100%; transform: translate3d(0px, 0px, 0px);" preserveAspectRatio="xMidYMid meet"><defs><clipPath id="__lottie_element_257"><rect width="1000" height="1000" x="0" y="0"></rect></clipPath><radialGradient id="__lottie_element_270" spreadMethod="pad" gradientUnits="userSpaceOnUse" cx="0" cy="0" r="1962.091995804478" fx="0" fy="0"><stop offset="0%" stop-color="rgb(252,225,58)"></stop><stop offset="26%" stop-color="rgb(126,219,157)"></stop><stop offset="52%" stop-color="rgb(1,213,255)"></stop></radialGradient><mask id="__lottie_element_272"><path fill="url(#__lottie_element_271)" d=" M0,-467 C257.7373046875,-467 467,-257.7373046875 467,0 C467,257.7373046875 257.7373046875,467 0,467 C-257.7373046875,467 -467,257.7373046875 -467,0 C-467,-257.7373046875 -257.7373046875,-467 0,-467z"></path></mask><radialGradient id="__lottie_element_271" spreadMethod="pad" gradientUnits="userSpaceOnUse" cx="0" cy="0" r="1962.091995804478" fx="0" fy="0"><stop stop-color="rgb(255,255,255)" offset="0%" stop-opacity="0"></stop><stop stop-color="rgb(255,255,255)" offset="21%" stop-opacity="0.5"></stop><stop stop-color="rgb(255,255,255)" offset="43%" stop-opacity="1"></stop></radialGradient></defs><g clip-path="url(#__lottie_element_257)"><g style="display: none;" transform="matrix(1.2038719654083252,0,0,1.2038719654083252,500,500)" opacity="0.03435351110744805"><g opacity="1" transform="matrix(1,0,0,1,0,2)"><path fill="url(#__lottie_element_270)" mask="url(#__lottie_element_272)" fill-opacity="1" d="M0 0 M0,-467 C257.7373046875,-467 467,-257.7373046875 467,0 C467,257.7373046875 257.7373046875,467 0,467 C-257.7373046875,467 -467,257.7373046875 -467,0 C-467,-257.7373046875 -257.7373046875,-467 0,-467z"></path><path stroke-linecap="butt" stroke-linejoin="miter" fill-opacity="0" stroke-miterlimit="4" stroke="rgb(255,231,35)" stroke-opacity="1" stroke-width="4" d=" M0,-467 C257.7373046875,-467 467,-257.7373046875 467,0 C467,257.7373046875 257.7373046875,467 0,467 C-257.7373046875,467 -467,257.7373046875 -467,0 C-467,-257.7373046875 -257.7373046875,-467 0,-467z"></path></g></g><g style="display: block;" transform="matrix(1,0,0,1,-27.39300537109375,-6.303009033203125)" opacity="1"><g opacity="1" transform="matrix(1,0,0,1,491.468994140625,131.34500122070312)"><path stroke-linecap="butt" stroke-linejoin="miter" fill-opacity="0" stroke-miterlimit="10" stroke="rgb(245,208,24)" stroke-opacity="1" stroke-width="15" d="M0 0"></path></g><g opacity="1" transform="matrix(1,0,0,1,126.99700164794922,406.8630065917969)"><path stroke-linecap="butt" stroke-linejoin="miter" fill-opacity="0" stroke-miterlimit="10" stroke="rgb(245,208,24)" stroke-opacity="1" stroke-width="15" d="M0 0"></path></g><g opacity="1" transform="matrix(1,0,0,1,915.2509765625,425.8030090332031)"><path stroke-linecap="butt" stroke-linejoin="miter" fill-opacity="0" stroke-miterlimit="10" stroke="rgb(245,208,24)" stroke-opacity="1" stroke-width="15" d="M0 0"></path></g><g opacity="1" transform="matrix(1,0,0,1,280.97601318359375,881.0700073242188)"><path stroke-linecap="butt" stroke-linejoin="miter" fill-opacity="0" stroke-miterlimit="10" stroke="rgb(245,208,24)" stroke-opacity="1" stroke-width="15" d="M0 0"></path></g><g opacity="1" transform="matrix(1,0,0,1,772.739013671875,879.7630004882812)"><path stroke-linecap="butt" stroke-linejoin="miter" fill-opacity="0" stroke-miterlimit="10" stroke="rgb(245,208,24)" stroke-opacity="1" stroke-width="15" d="M0 0"></path></g></g><g style="display: block;" transform="matrix(1,0,0,1,247.24899291992188,197.90301513671875)" opacity="1"><g opacity="1" transform="matrix(1,0,0,1,253.1790008544922,302.375)"><path fill="rgb(245,208,24)" fill-opacity="1" d=" M241.6750030517578,-19.108999252319336 C210.3800048828125,8.182999610900879 178.88400268554688,35.24800109863281 147.46299743652344,62.41400146484375 C60.77799987792969,137.24099731445312 -25.881999969482422,212.0919952392578 -112.59200286865234,286.9179992675781 C-118.60900115966797,292.1050109863281 -124.802001953125,297.06500244140625 -130.9199981689453,302.125 C-130.9199981689453,302.125 -138.47300720214844,302.125 -138.47300720214844,302.125 C-151.86700439453125,289.48699951171875 -152.29600524902344,286.7919921875 -143.50900268554688,269.697998046875 C-108.61399841308594,201.84500122070312 -73.69300079345703,133.9929962158203 -38.823001861572266,66.11599731445312 C-36.40599822998047,61.43299865722656 -34.39099884033203,56.54800033569336 -31.017000198364258,49.196998596191406 C-31.017000198364258,49.196998596191406 -47.96200180053711,49.196998596191406 -47.96200180053711,49.196998596191406 C-107.55599975585938,49.196998596191406 -167.125,49.297000885009766 -226.69400024414062,48.994998931884766 C-232.71099853515625,48.970001220703125 -239.61000061035156,47.862998962402344 -244.49400329589844,44.74100112915039 C-252.9290008544922,39.35200119018555 -251.41799926757812,27.594999313354492 -241.6739959716797,19.110000610351562 C-210.37899780273438,-8.182000160217285 -178.88299560546875,-35.24700164794922 -147.43600463867188,-62.38800048828125 C-60.777000427246094,-137.24000549316406 25.906999588012695,-212.09100341796875 112.61699676513672,-286.9179992675781 C118.61000061035156,-292.10400390625 124.8280029296875,-297.0639953613281 130.9459991455078,-302.125 C130.9459991455078,-302.125 138.49899291992188,-302.125 138.49899291992188,-302.125 C151.81900024414062,-289.58599853515625 152.2969970703125,-286.6910095214844 143.53500366210938,-269.6709899902344 C108.66500091552734,-201.81900024414062 73.71800231933594,-133.99200439453125 38.847999572753906,-66.11399841308594 C36.45600128173828,-61.430999755859375 34.41699981689453,-56.547000885009766 31.04400062561035,-49.19499969482422 C31.04400062561035,-49.19499969482422 48.012001037597656,-49.19499969482422 48.012001037597656,-49.19499969482422 C107.58100128173828,-49.19499969482422 167.15199279785156,-49.32099914550781 226.72000122070312,-49.01900100708008 C232.73699951171875,-48.96900177001953 239.63499450683594,-47.861000061035156 244.52000427246094,-44.73899841308594 C252.9290008544922,-39.375999450683594 251.41900634765625,-27.618999481201172 241.6750030517578,-19.108999252319336z"></path></g></g><g style="display: block;" transform="matrix(0,0,0,0,500.4289855957031,500.27801513671875)" opacity="1"><g opacity="1" transform="matrix(1,0,0,1,253.1790008544922,302.375)"><path fill="rgb(77,77,77)" fill-opacity="1" d=" M241.6750030517578,-19.108999252319336 C210.3800048828125,8.182999610900879 178.88400268554688,35.24800109863281 147.46299743652344,62.41400146484375 C60.77799987792969,137.24099731445312 -25.881999969482422,212.0919952392578 -112.59200286865234,286.9179992675781 C-118.60900115966797,292.1050109863281 -124.802001953125,297.06500244140625 -130.9199981689453,302.125 C-130.9199981689453,302.125 -138.47300720214844,302.125 -138.47300720214844,302.125 C-151.86700439453125,289.48699951171875 -152.29600524902344,286.7919921875 -143.50900268554688,269.697998046875 C-108.61399841308594,201.84500122070312 -73.69300079345703,133.9929962158203 -38.823001861572266,66.11599731445312 C-36.40599822998047,61.43299865722656 -34.39099884033203,56.54800033569336 -31.017000198364258,49.196998596191406 C-31.017000198364258,49.196998596191406 -47.96200180053711,49.196998596191406 -47.96200180053711,49.196998596191406 C-107.55599975585938,49.196998596191406 -167.125,49.297000885009766 -226.69400024414062,48.994998931884766 C-232.71099853515625,48.970001220703125 -239.61000061035156,47.862998962402344 -244.49400329589844,44.74100112915039 C-252.9290008544922,39.35200119018555 -251.41799926757812,27.594999313354492 -241.6739959716797,19.110000610351562 C-210.37899780273438,-8.182000160217285 -178.88299560546875,-35.24700164794922 -147.43600463867188,-62.38800048828125 C-60.777000427246094,-137.24000549316406 25.906999588012695,-212.09100341796875 112.61699676513672,-286.9179992675781 C118.61000061035156,-292.10400390625 124.8280029296875,-297.0639953613281 130.9459991455078,-302.125 C130.9459991455078,-302.125 138.49899291992188,-302.125 138.49899291992188,-302.125 C151.81900024414062,-289.58599853515625 152.2969970703125,-286.6910095214844 143.53500366210938,-269.6709899902344 C108.66500091552734,-201.81900024414062 73.71800231933594,-133.99200439453125 38.847999572753906,-66.11399841308594 C36.45600128173828,-61.430999755859375 34.41699981689453,-56.547000885009766 31.04400062561035,-49.19499969482422 C31.04400062561035,-49.19499969482422 48.012001037597656,-49.19499969482422 48.012001037597656,-49.19499969482422 C107.58100128173828,-49.19499969482422 167.15199279785156,-49.32099914550781 226.72000122070312,-49.01900100708008 C232.73699951171875,-48.96900177001953 239.63499450683594,-47.861000061035156 244.52000427246094,-44.73899841308594 C252.9290008544922,-39.375999450683594 251.41900634765625,-27.618999481201172 241.6750030517578,-19.108999252319336z"></path></g></g></g></svg>