<svg width="121" height="56" viewBox="0 0 121 56" fill="none" xmlns="http://www.w3.org/2000/svg">
<mask id="path-1-outside-1_2006_16190" maskUnits="userSpaceOnUse" x="-0.257812" y="0.673832" width="121" height="56" fill="black">
<rect fill="white" x="-0.257812" y="0.673832" width="121" height="56"/>
<path d="M112.694 2.67383H7.31942C4.2392 2.67383 1.74219 5.17084 1.74219 8.25106V43.4922C1.74219 46.5724 4.2392 49.0694 7.31942 49.0694H91.9309L93.3182 52.2763C93.9188 53.6644 95.424 54.4263 96.8985 54.0886C98.2436 53.7804 99.5396 53.3053 100.782 52.6702C102.06 52.017 103.213 51.2051 104.221 50.227C104.597 49.8625 104.944 49.4767 105.259 49.0694H112.694C115.774 49.0694 118.271 46.5724 118.271 43.4922V8.25106C118.271 5.17084 115.774 2.67383 112.694 2.67383Z"/>
</mask>
<path d="M112.694 2.67383H7.31942C4.2392 2.67383 1.74219 5.17084 1.74219 8.25106V43.4922C1.74219 46.5724 4.2392 49.0694 7.31942 49.0694H91.9309L93.3182 52.2763C93.9188 53.6644 95.424 54.4263 96.8985 54.0886C98.2436 53.7804 99.5396 53.3053 100.782 52.6702C102.06 52.017 103.213 51.2051 104.221 50.227C104.597 49.8625 104.944 49.4767 105.259 49.0694H112.694C115.774 49.0694 118.271 46.5724 118.271 43.4922V8.25106C118.271 5.17084 115.774 2.67383 112.694 2.67383Z" fill="white"/>
<path d="M93.3182 52.2763L91.7186 52.9683L91.7187 52.9685L93.3182 52.2763ZM96.8985 54.0886L97.2877 55.7875L97.2877 55.7875L96.8985 54.0886ZM100.782 52.6702L101.575 54.2222L101.576 54.2221L100.782 52.6702ZM104.221 50.227L105.435 51.4777L105.435 51.4776L104.221 50.227ZM105.259 49.0694V47.3265C104.72 47.3265 104.211 47.5761 103.881 48.0024L105.259 49.0694ZM91.9309 49.0694L93.5306 48.3774C93.2546 47.7395 92.626 47.3265 91.9309 47.3265V49.0694ZM7.31942 4.41672H112.694V0.930947H7.31942V4.41672ZM116.529 8.25106V43.4922H120.014V8.25106H116.529ZM3.48507 43.4922V8.25106H-0.000697374V43.4922H3.48507ZM7.31942 47.3265C5.20177 47.3265 3.48507 45.6098 3.48507 43.4922H-0.000697374C-0.000697374 47.535 3.27663 50.8123 7.31942 50.8123V47.3265ZM116.529 43.4922C116.529 45.6098 114.812 47.3265 112.694 47.3265V50.8123C116.737 50.8123 120.014 47.535 120.014 43.4922H116.529ZM112.694 4.41672C114.812 4.41672 116.529 6.13341 116.529 8.25106H120.014C120.014 4.20827 116.737 0.930947 112.694 0.930947V4.41672ZM7.31942 0.930947C3.27663 0.930947 -0.000697374 4.20827 -0.000697374 8.25106H3.48507C3.48507 6.13341 5.20177 4.41672 7.31942 4.41672V0.930947ZM91.7187 52.9685C92.6529 55.1276 94.9943 56.3128 97.2877 55.7875L96.5093 52.3897C95.8537 52.5399 95.1848 52.2011 94.9178 51.5842L91.7187 52.9685ZM97.2877 55.7875C98.7767 55.4463 100.208 54.921 101.575 54.2222L99.9892 51.1183C98.8712 51.6897 97.7106 52.1145 96.5093 52.3897L97.2877 55.7875ZM101.576 54.2221C102.998 53.4952 104.295 52.5844 105.435 51.4777L103.007 48.9764C102.132 49.8259 101.123 50.5388 99.989 51.1183L101.576 54.2221ZM105.435 51.4776C105.866 51.0592 106.269 50.6125 106.637 50.1364L103.881 48.0024C103.619 48.3409 103.327 48.6657 103.007 48.9765L105.435 51.4776ZM112.694 47.3265H105.259V50.8123H112.694V47.3265ZM91.9309 47.3265H7.31942V50.8123H91.9309V47.3265ZM90.3313 49.7614L91.7186 52.9683L94.9179 51.5843L93.5306 48.3774L90.3313 49.7614Z" fill="black" mask="url(#path-1-outside-1_2006_16190)"/>
<path fill-rule="evenodd" clip-rule="evenodd" d="M49.0941 17.3769C47.7862 17.3769 46.6157 18.1881 46.1566 19.4125L37.5004 42.4953C37.1393 43.4587 37.2735 44.5379 37.8594 45.3836C38.4454 46.2296 39.4089 46.734 40.4379 46.734H46.5819C47.9145 46.734 49.1014 45.8925 49.5423 44.6352L50.4016 42.1854H53.9083L54.848 44.9468C55.3183 46.3286 56.6795 47.2038 58.1316 47.0578L64.208 46.4467C64.2261 46.4446 64.2446 46.4429 64.2628 46.4408C64.6657 46.6287 65.1154 46.734 65.5891 46.734H71.7673C72.3909 46.734 72.9719 46.552 73.4603 46.2383C73.9487 46.552 74.5301 46.734 75.1537 46.734H78.2766C78.7921 46.734 79.2944 46.6071 79.742 46.3707C79.9494 46.4568 80.1599 46.5356 80.3733 46.6071C80.383 46.6102 80.3928 46.6134 80.4022 46.6165C81.4096 46.9414 82.447 47.1073 83.5042 47.1073C85.6375 47.1073 87.6568 46.705 89.4659 45.7865C90.275 45.3811 91.0084 44.8855 91.663 44.3054C91.4817 44.5362 91.3322 44.7927 91.2203 45.0695C90.9059 45.8479 90.9167 46.7197 91.2499 47.49L93.3205 52.2763C93.9211 53.6644 95.4262 54.4264 96.9007 54.0886C98.2459 53.7804 99.5419 53.3053 100.785 52.6702C102.062 52.017 103.216 51.2052 104.223 50.227C105.272 49.2089 106.102 48.0251 106.625 46.6698L106.63 46.658L113.852 28.2808C114.231 27.3151 114.109 26.2241 113.524 25.3667C112.94 24.5092 111.97 23.9961 110.932 23.9961H104.788C103.444 23.9961 102.249 24.8523 101.817 26.125L101.633 26.6687L101.242 25.515C100.704 23.9302 99.0176 23.0461 97.4086 23.5059L91.7059 25.1352C91.4235 25.2159 91.1565 25.335 90.9118 25.487C90.4656 25.1716 89.9891 24.8909 89.483 24.6469C87.9297 23.898 86.2419 23.5128 84.4687 23.4343V19.6315C84.4687 18.7666 84.1118 17.94 83.4819 17.3472C82.852 16.7544 82.0057 16.4478 81.1422 16.5L74.9644 16.8734C74.528 16.8998 74.1174 17.0143 73.7486 17.1991C73.1407 16.7038 72.3661 16.4524 71.578 16.5L65.3998 16.8734C63.7437 16.9735 62.4519 18.3458 62.4519 20.0049V30.6369L58.2066 19.4049C57.7454 18.1844 56.5766 17.3769 55.2719 17.3769H49.0941ZM94.1815 40.9197C94.0769 41.1386 93.9646 41.354 93.8447 41.566C93.4052 42.3593 92.8816 43.0767 92.2779 43.7118C92.4762 43.5668 92.6923 43.4444 92.9224 43.3486C93.4261 43.1387 93.9556 42.9059 94.5119 42.6493C94.5252 42.6431 94.5387 42.6368 94.5523 42.6309C94.6391 42.5922 94.7231 42.5535 94.8037 42.5151L94.1815 40.9197Z" fill="white"/>
<path d="M49.0898 20.514H55.2676L63.8897 43.3252L57.8136 43.9363L56.1502 39.0482H48.173L46.5776 43.5968H40.4336L49.0898 20.514ZM54.385 34.1939L52.0768 27.9141L49.8706 34.1939H54.385Z" fill="black"/>
<path d="M71.7641 43.5968H65.5859V20.0049L71.7641 19.6315V43.5968Z" fill="black"/>
<path d="M78.2713 43.5968H75.1484V20.0049L81.3263 19.6315V26.9976C81.7111 26.8618 82.1071 26.76 82.5146 26.6921C82.9217 26.6016 83.3403 26.5563 83.7705 26.5563C85.3997 26.5563 86.8481 26.8618 88.1155 27.4728C89.3826 28.0838 90.3785 29.023 91.1025 30.2903C91.8495 31.5576 92.2228 33.1756 92.2228 35.1445C92.2228 37.0906 91.8495 38.7198 91.1025 40.0326C90.3785 41.345 89.3599 42.3293 88.0475 42.9857C86.7574 43.6421 85.2415 43.9701 83.4989 43.9701C82.7746 43.9701 82.0618 43.8572 81.3604 43.6306C80.6814 43.4044 80.0024 43.0422 79.3237 42.5444L78.2713 43.5968ZM82.8199 31.3086C82.3675 31.3086 81.8693 31.4784 81.3263 31.8178V38.7425C81.9373 39.0593 82.5257 39.218 83.0915 39.218C83.8608 39.218 84.506 38.8669 85.0264 38.1656C85.5695 37.4413 85.841 36.4457 85.841 35.1783C85.841 33.9112 85.5807 32.9493 85.0602 32.293C84.5398 31.6367 83.7931 31.3086 82.8199 31.3086Z" fill="black"/>
<path d="M98.3332 43.6647L98.4691 43.2914L92.5625 28.1517L98.2656 26.5224L101.626 36.4342L104.783 27.1334H110.927L103.697 45.5317C103.357 46.4143 102.803 47.2289 102.033 47.9756C101.264 48.7226 100.37 49.3563 99.3517 49.8767C98.3332 50.3972 97.2812 50.782 96.1947 51.0309L94.1241 46.2446C94.6672 46.0183 95.2329 45.7691 95.8213 45.4976C96.4324 45.226 96.9755 44.9318 97.4506 44.615C97.9261 44.2985 98.2203 43.9816 98.3332 43.6647Z" fill="black"/>
<path d="M33.623 42.7584C38.3075 42.7584 40.4394 32.4091 40.4394 28.4849C40.4394 25.4263 38.3242 23.5727 35.5436 23.5727C32.7802 23.5727 30.5367 24.7583 30.5089 26.2266C30.5088 30.1014 29.8253 42.7584 33.623 42.7584Z" fill="white"/>
<path d="M16.5704 42.7584C11.886 42.7584 9.75391 32.4091 9.75391 28.4849C9.75391 25.4263 11.8691 23.5727 14.6498 23.5727C17.4133 23.5727 19.6567 24.7583 19.6846 26.2266C19.6847 30.1014 20.3681 42.7584 16.5704 42.7584Z" fill="white"/>
<path d="M33.623 42.7584C38.3075 42.7584 40.4394 32.4091 40.4394 28.4849C40.4394 25.4263 38.3242 23.5727 35.5436 23.5727C32.7802 23.5727 30.5367 24.7583 30.5089 26.2266C30.5088 30.1014 29.8253 42.7584 33.623 42.7584Z" stroke="black" stroke-width="1.38839"/>
<path d="M16.5704 42.7584C11.886 42.7584 9.75391 32.4091 9.75391 28.4849C9.75391 25.4263 11.8691 23.5727 14.6498 23.5727C17.4133 23.5727 19.6567 24.7583 19.6846 26.2266C19.6847 30.1014 20.3681 42.7584 16.5704 42.7584Z" stroke="black" stroke-width="1.38839"/>
<path d="M24.8721 30.3674C29.2159 30.3674 33.2849 29.1817 36.7709 27.1159C36.8699 27.0571 36.9766 27.0645 37.0532 27.1075C37.0902 27.1284 37.1122 27.1533 37.1237 27.1741C37.1334 27.1916 37.1432 27.2185 37.1383 27.2655C36.5987 32.6074 33.7017 37.023 29.8078 39.0555C28.5204 39.7272 27.6358 40.8943 26.8589 41.9191C26.8449 41.9375 26.8309 41.956 26.8169 41.9745C26.1855 42.8069 25.6151 43.5518 24.9183 44.1008C24.2215 43.5518 23.6512 42.8069 23.0197 41.9745C23.0058 41.956 22.9918 41.9375 22.9778 41.9191C22.2009 40.8943 21.3162 39.7272 20.0288 39.0555C16.1494 37.0306 13.2596 32.6401 12.7044 27.3247C12.6996 27.2778 12.7091 27.2508 12.7187 27.2332C12.7301 27.2124 12.752 27.1874 12.7888 27.1664C12.8651 27.1231 12.9718 27.1152 13.0711 27.1735C16.5353 29.2037 20.5688 30.3674 24.8721 30.3674Z" fill="#FFDF6F" stroke="black" stroke-width="1.38839"/>
<path d="M24.964 31.2468C31.7117 31.2468 37.1818 29.4235 37.1818 27.1742C37.1818 24.925 31.7117 23.1016 24.964 23.1016C18.2162 23.1016 12.7461 24.925 12.7461 27.1742C12.7461 29.4235 18.2162 31.2468 24.964 31.2468Z" fill="black" stroke="black" stroke-width="1.38839"/>
<path d="M15.1523 34.0235C15.1523 34.0235 21.1787 36.0599 25.0562 36.0599C28.9337 36.0599 34.9601 34.0235 34.9601 34.0235" stroke="black" stroke-width="1.38839" stroke-linecap="round"/>
<path d="M10.7031 9.75888C10.7031 11.2847 11.94 12.5216 13.4658 12.5216C14.9916 12.5216 16.2285 11.2847 16.2285 9.75888C16.2285 8.23309 14.9916 6.9962 13.4658 6.9962C11.94 6.9962 10.7031 8.23309 10.7031 9.75888Z" fill="black"/>
<path d="M38.795 9.75888C38.795 11.2847 37.5579 12.5216 36.0322 12.5216C34.5064 12.5216 33.2695 11.2847 33.2695 9.75888C33.2695 8.23309 34.5064 6.9962 36.0322 6.9962C37.5579 6.9962 38.795 8.23309 38.795 9.75888Z" fill="black"/>
<path d="M36.5406 9.34451L31.3835 14.5015M13.0117 9.34451L18.1687 14.5015L13.0117 9.34451Z" stroke="black" stroke-width="1.38134"/>
<path d="M14.2538 26.2446C12.7648 25.5358 11.8983 23.944 12.1885 22.3206C13.4345 15.3531 18.6267 10.1272 24.8427 10.1272C31.0738 10.1272 36.2763 15.3784 37.5057 22.3712C37.7919 23.9976 36.9183 25.5886 35.4241 26.2918C32.2271 27.7963 28.6561 28.6372 24.8887 28.6372C21.0822 28.6372 17.4762 27.7787 14.2538 26.2446Z" fill="#FFDF6F" stroke="black" stroke-width="1.38134"/>
<path d="M16.9103 24.5124C15.7118 24.0242 15.0008 22.749 15.4161 21.5233C16.6969 17.7434 20.433 15.008 24.8425 15.008C29.2519 15.008 32.988 17.7434 34.2688 21.5233C34.6841 22.749 33.9731 24.0242 32.7746 24.5124C30.3266 25.5094 27.6487 26.0587 24.8425 26.0587C22.0362 26.0587 19.3583 25.5094 16.9103 24.5124Z" fill="black"/>
<path d="M30.3272 20.9017C30.3271 21.9189 29.2964 22.7435 28.0249 22.7435C26.7534 22.7435 25.7227 21.9189 25.7227 20.9017C25.7227 19.8845 26.7534 19.0599 28.0249 19.0599C29.2964 19.0599 30.3272 19.8845 30.3272 20.9017Z" fill="white"/>
<path d="M23.7295 20.9028C23.7295 21.92 22.6987 22.7446 21.4272 22.7446C20.1557 22.7446 19.125 21.92 19.125 20.9028C19.125 19.8856 20.1557 19.061 21.4272 19.061C22.6987 19.061 23.7295 19.8856 23.7295 20.9028Z" fill="white"/>
<path d="M48.4008 16.4276C49.021 16.4276 49.5669 16.2919 50.0385 16.0206C50.5101 15.7493 50.8783 15.3649 51.1432 14.8674C51.4145 14.37 51.5502 13.7789 51.5502 13.0941C51.5502 12.4674 51.4307 11.9119 51.1917 11.4273C50.9591 10.9364 50.6102 10.5487 50.1451 10.2645C49.6864 9.98023 49.1179 9.8381 48.4396 9.8381H45.4549V16.4276H48.4008ZM48.3524 11.2238C48.6495 11.2238 48.8983 11.3046 49.0985 11.4661C49.3053 11.6276 49.4603 11.8505 49.5637 12.1347C49.6735 12.4125 49.7284 12.7323 49.7284 13.0941C49.7284 13.5269 49.6638 13.8887 49.5346 14.1794C49.4054 14.4701 49.231 14.6866 49.0113 14.8287C48.7981 14.9708 48.5559 15.0419 48.2845 15.0419H47.2186V11.2238H48.3524ZM55.5355 16.5633C54.8378 16.5633 54.2337 16.4115 53.7234 16.1078C53.213 15.8042 52.8189 15.394 52.5411 14.8771C52.2698 14.3603 52.1341 13.7886 52.1341 13.1619C52.1341 12.4836 52.2795 11.886 52.5702 11.3692C52.8609 10.8459 53.2615 10.4389 53.7718 10.1482C54.2886 9.85102 54.8765 9.70244 55.5355 9.70244C56.2526 9.70244 56.8631 9.85425 57.367 10.1579C57.8773 10.4615 58.2682 10.8685 58.5395 11.3789C58.8108 11.8892 58.9465 12.461 58.9465 13.0941C58.9465 13.7724 58.8012 14.3732 58.5104 14.8965C58.2262 15.4198 57.8257 15.83 57.3088 16.1272C56.7985 16.4179 56.2073 16.5633 55.5355 16.5633ZM55.5258 15.0903C55.8294 15.0903 56.1008 15.016 56.3398 14.8674C56.5853 14.7189 56.7791 14.496 56.9212 14.1988C57.0633 13.9016 57.1344 13.5334 57.1344 13.0941C57.1344 12.7259 57.0698 12.3996 56.9406 12.1154C56.8178 11.8246 56.637 11.5953 56.3979 11.4273C56.1654 11.2594 55.8843 11.1754 55.5549 11.1754C55.2641 11.1754 54.996 11.2594 54.7506 11.4273C54.5051 11.5888 54.308 11.8182 54.1594 12.1154C54.0173 12.4061 53.9462 12.7517 53.9462 13.1522C53.9462 13.5205 54.0076 13.8532 54.1304 14.1503C54.2596 14.4411 54.4405 14.6704 54.673 14.8384C54.9121 15.0063 55.1963 15.0903 55.5258 15.0903ZM61.7732 16.4276V12.9584L62.2674 13.6368L64.3024 16.4276H65.9497V9.8381H64.1861L64.2152 13.4139L63.7113 12.7452L61.6472 9.8381H60.0095V16.4276H61.7732ZM70.8089 13.7433H69.5201L70.1499 11.9506L70.8089 13.7433ZM69.2972 9.8381L66.8261 16.4276H68.5801L69.0355 15.1291H71.3128L71.7876 16.5245L73.5222 16.3501L71.0608 9.8381H69.2972ZM79.3553 9.8381H73.7154V11.2238H75.6535V16.4276H77.4172V11.2238H79.52L79.3553 9.8381ZM85.2193 16.4276L85.0546 15.0419H82.1572V13.8112H84.3472L84.1825 12.4254H82.1572V11.2238H84.9286L84.7639 9.8381H80.3935V16.4276H85.2193ZM97.1326 9.8381L95.243 16.4276H93.4793L92.394 12.2898L91.3765 16.4276H89.6128L87.636 9.91563L89.3706 9.7412L90.5237 14.3151L91.5121 9.8381H93.2661L94.3902 14.3151L95.3786 9.8381H97.1326ZM99.7684 16.4276V9.8381H98.0047V16.4276H99.7684ZM106.278 9.8381H100.639V11.2238H102.577V16.4276H104.34V11.2238H106.443L106.278 9.8381ZM113.15 16.4276V9.8381H111.387V12.4642H109.08V9.77996L107.317 9.8381V16.4276H109.08V13.8499H111.387V16.4276H113.15Z" fill="black"/>
</svg>
