<?xml version="1.0" encoding="UTF-8" standalone="no"?>
<!-- Created with Inkscape (http://www.inkscape.org/) -->

<svg
   width="115.2924mm"
   height="114.34171mm"
   viewBox="0 0 115.2924 114.34171"
   version="1.1"
   id="svg5"
   inkscape:version="1.1.2 (0a00cf5, 2022-02-04)"
   sodipodi:docname="r.svg"
   xmlns:inkscape="http://www.inkscape.org/namespaces/inkscape"
   xmlns:sodipodi="http://sodipodi.sourceforge.net/DTD/sodipodi-0.dtd"
   xmlns="http://www.w3.org/2000/svg"
   xmlns:svg="http://www.w3.org/2000/svg">
  <sodipodi:namedview
     id="namedview7"
     pagecolor="#505050"
     bordercolor="#eeeeee"
     borderopacity="1"
     inkscape:pageshadow="0"
     inkscape:pageopacity="0"
     inkscape:pagecheckerboard="0"
     inkscape:document-units="mm"
     showgrid="false"
     inkscape:snap-nodes="true"
     inkscape:snap-bbox="true"
     inkscape:object-paths="true"
     inkscape:snap-intersection-paths="true"
     inkscape:snap-bbox-midpoints="true"
     inkscape:snap-bbox-edge-midpoints="true"
     inkscape:bbox-nodes="true"
     inkscape:bbox-paths="true"
     inkscape:zoom="0.64"
     inkscape:cx="296.09375"
     inkscape:cy="157.03125"
     inkscape:window-width="1440"
     inkscape:window-height="838"
     inkscape:window-x="0"
     inkscape:window-y="0"
     inkscape:window-maximized="1"
     inkscape:current-layer="layer1"
     fit-margin-top="0"
     fit-margin-left="0"
     fit-margin-right="0"
     fit-margin-bottom="0" />
  <defs
     id="defs2" />
  <g
     inkscape:label="Layer 1"
     inkscape:groupmode="layer"
     id="layer1"
     transform="translate(-26.926921,-42.972773)">
    <path
       style="fill:#ff5555;fill-opacity:0.490105;fill-rule:nonzero;stroke-width:1.429;stroke-linecap:round;stroke-linejoin:round;stroke-miterlimit:10;stop-color:#000000"
       id="path5989"
       d="m 54.261302,43.107295 c 0.01394,2.027769 -0.06799,4.061118 0.06276,6.087046 0.07798,1.208188 0.213307,2.411989 0.319963,3.617987 0.241734,1.643208 0.435168,3.29425 0.725207,4.929624 1.257374,7.08965 3.092987,14.073721 4.80446,21.061518 2.457157,10.032365 1.618025,6.571623 3.983456,16.58806 2.430383,10.13835 4.353533,20.38676 5.758309,30.71505 0.264221,2.08828 0.151181,1.13625 0.346292,2.85524 0,0 3.254722,-1.72878 3.254722,-1.72878 v 0 C 73.136336,125.60618 73.347892,126.5082 72.880704,124.52725 70.54325,114.51636 68.26255,104.49215 65.783306,94.514632 63.828109,86.32223 61.834429,78.134505 60.124707,69.886096 59.259721,65.713051 58.290203,60.756241 57.771461,56.483331 c -0.204338,-1.683125 -0.278088,-3.379549 -0.417129,-5.069324 -0.01762,-1.243877 -0.07039,-2.487752 -0.05287,-3.731633 0.02966,-2.104628 0.260482,-4.218315 0.474588,-6.310325 0,0 -3.514757,1.735246 -3.514757,1.735246 z" />
    <path
       style="fill:#ff5555;fill-opacity:0.490105;fill-rule:nonzero;stroke-width:1.429;stroke-linecap:round;stroke-linejoin:round;stroke-miterlimit:10;stop-color:#000000"
       id="path5991"
       d="m 30.535419,51.390867 c 0.911691,-1.307317 2.169181,-2.271334 3.443888,-3.199313 0.09934,-0.07231 -0.394364,0.283033 -0.27891,0.240999 1.229929,-0.447792 2.428602,-0.97717 3.642902,-1.465758 1.56496,-0.428527 3.108783,-0.943493 4.694881,-1.285586 8.660272,-1.867866 17.682905,-1.720715 26.292674,0.382042 2.433979,0.59445 4.787659,1.479466 7.181488,2.219201 2.300581,1.03777 4.668872,1.936914 6.901746,3.113315 7.848266,4.134898 15.102242,10.050142 20.045802,17.482177 0.94582,1.421918 1.65856,2.985775 2.48784,4.47866 1.06251,3.078242 1.95926,4.682953 1.85556,7.951856 -0.12438,3.920702 -2.14688,6.542709 -5.48981,8.420521 -0.53563,0.300879 -1.19489,0.286255 -1.792331,0.429381 -8.76509,2.857262 -18.053571,3.164621 -27.165345,2.238735 -1.297371,-0.131831 -2.585103,-0.345591 -3.877654,-0.518387 -2.267153,-0.394158 -4.551362,-0.823323 -6.718765,-1.621274 -0.651082,-0.239702 -1.36397,-0.479939 -1.708304,-1.114669 1.590159,-0.266337 -1.323623,0.164955 -2.074738,1.710301 -0.221972,0.45669 1.020739,0.0326 1.516775,0.141161 0.805058,0.176191 1.600782,0.4094 2.368452,0.709139 3.049277,1.190593 4.089791,2.007446 7.037022,3.774503 1.491316,1.075277 3.031739,2.085533 4.473948,3.225829 5.63667,4.45669 10.581373,9.68165 15.350212,15.03316 1.75873,1.97362 9.109273,10.5644 10.813812,12.55204 6.179556,7.13379 12.392346,14.32302 19.711336,20.33133 3.21836,2.64202 4.37826,3.31244 7.68711,5.52576 3.29174,2.03964 6.73242,3.92296 10.46167,5.02595 2.06237,0.52286 2.51933,-0.43944 4.75892,-2.12271 0.0893,-0.0671 0.0587,-0.86109 0.0585,-0.89578 -0.16893,-1.37539 -0.7817,-2.61573 -1.43794,-3.81543 -0.27389,-0.46475 -0.55144,-0.92586 -0.84955,-1.37535 0,0 -3.32443,1.95957 -3.32443,1.95957 v 0 c 0.31629,0.42196 0.60811,0.85913 0.88492,1.3083 0.6443,1.13146 1.21986,2.33082 1.28281,3.6549 -0.0171,0.14087 -0.0171,0.2849 -0.0514,0.4226 -0.0266,0.10659 -0.22844,0.35051 -0.12936,0.30309 1.07986,-0.51678 2.08106,-1.1848 3.13971,-1.74373 0.0901,-0.0476 -0.13142,0.16825 -0.22624,0.20551 -0.27538,0.10821 -0.76832,-0.005 -1.01063,-0.0371 -3.94242,-0.79566 -7.61384,-2.54291 -11.1263,-4.45405 -3.57444,-2.14472 -4.55248,-2.60729 -8.02793,-5.26597 -7.55349,-5.77835 -13.95445,-12.86082 -20.18087,-20.00252 -1.799914,-2.10828 -3.604785,-4.21233 -5.399735,-6.32483 -7.556396,-8.89322 -14.979999,-18.10089 -24.461821,-25.051866 -2.130322,-1.4462 -12.610907,-9.472758 -14.577846,-2.832082 0.583293,0.720326 1.213811,0.89685 2.114021,1.15756 2.356313,0.682411 4.798459,1.013862 7.223516,1.334778 10.46955,1.041673 21.077386,1.387679 31.267212,-1.699252 2.946443,-1.426096 7.460233,-3.025748 9.919743,-5.733306 2.52399,-2.77853 2.60411,-6.610879 1.64984,-10.032781 -0.39615,-1.420566 -1.07936,-2.744951 -1.61904,-4.117424 -0.88675,-1.47387 -1.66355,-3.019759 -2.66026,-4.421611 C 99.41203,60.278181 92.035528,54.41666 84.144132,50.248004 81.908808,49.067188 79.542933,48.15206 77.242333,47.104088 74.858794,46.346895 72.515552,45.448632 70.091715,44.832505 60.113856,42.296183 49.620738,42.322249 39.713699,45.107129 c -1.165339,0.432276 -2.378814,0.752094 -3.496014,1.296832 -3.45341,1.683855 -6.825057,3.549258 -9.290764,6.532284 0,0 3.608498,-1.545378 3.608498,-1.545378 z" />
  </g>
</svg>
